<?xml version="1.0" encoding="UTF-8"?>
<!DOCTYPE svg PUBLIC "-//W3C//DTD SVG 1.1//EN" "http://www.w3.org/Graphics/SVG/1.1/DTD/svg11.dtd">
<!-- Creator: CorelDRAW -->
<svg xmlns="http://www.w3.org/2000/svg" xml:space="preserve" width="200px" height="44px" version="1.1" shape-rendering="geometricPrecision" text-rendering="geometricPrecision" image-rendering="optimizeQuality" fill-rule="evenodd" clip-rule="evenodd"
viewBox="0 0 200 44.01"
 xmlns:xlink="http://www.w3.org/1999/xlink"
 xmlns:xodm="http://www.corel.com/coreldraw/odm/2003">
 <g id="Camada_x0020_1">
  <metadata id="CorelCorpID_0Corel-Layer"/>
  <g id="_38661189728">
   <g>
    <g>
     <path fill="black" fill-rule="nonzero" d="M39.44 42.94l-4.93 0c-0.54,0 -0.98,-0.43 -0.98,-0.97l0 -14.94c0,-8.43 5.95,-15.5 13.87,-17.23 0.53,-0.11 1.06,0.21 1.18,0.75l1.04 4.82c0.11,0.52 -0.21,1.04 -0.73,1.15 -4.84,1.05 -8.48,5.36 -8.48,10.51l0 14.94c0,0.54 -0.43,0.97 -0.97,0.97z"/>
    </g>
   </g>
   <g>
    <g>
     <path fill="black" fill-rule="nonzero" d="M189.79 42.66l-4.93 0c-0.54,0 -0.97,-0.43 -0.97,-0.97l0 -14.69c0,-8.43 5.94,-15.5 13.86,-17.23 0.54,-0.12 1.07,0.21 1.18,0.74l1.05 4.83c0.11,0.51 -0.21,1.03 -0.73,1.15 -4.84,1.04 -8.48,5.36 -8.48,10.51l0 14.69c0,0.54 -0.44,0.97 -0.98,0.97z"/>
    </g>
   </g>
   <g>
    <path fill="black" fill-rule="nonzero" d="M16.1 9.64c-3.41,-0.23 -6.59,0.69 -9.22,2.4l0 -10.9c0,-0.54 -0.44,-0.97 -0.97,-0.97l-4.93 0c-0.54,0 -0.98,0.43 -0.98,0.97l0 25.52 0 0 0 1.9c0,8.42 6.89,15.59 15.31,15.45 8.18,-0.13 14.8,-6.83 14.8,-15.05l0 -3.92c0,-7.98 -6.05,-14.85 -14.01,-15.4zm7.13 19.32l0 0c0,4.55 -3.67,8.17 -8.17,8.17 -4.51,0 -8.53,-3.65 -8.53,-8.17 0,-4.52 0,0.29 0,-4.3 0,-4.59 4.02,-8.17 8.53,-8.17 4.5,0 8.17,3.74 8.17,8.17 0,4.43 0,-0.25 0,4.3z"/>
   </g>
   <g>
    <path fill="black" fill-rule="nonzero" d="M145.93 0l-4.93 0c-0.54,0 -0.98,0.44 -0.98,0.98l0 10.89c-2.62,-1.7 -5.81,-2.63 -9.22,-2.39 -7.95,0.54 -14,7.42 -14,15.39l0 3.53c0,8.42 6.89,15.59 15.31,15.45 8.18,-0.14 14.79,-6.84 14.79,-15.05l0 -2.3 0.01 0 0 -25.52c0,-0.54 -0.44,-0.98 -0.98,-0.98zm-5.55 28.8l0 0c0,4.5 -4.02,8.17 -8.53,8.17 -4.51,0 -8.17,-3.67 -8.17,-8.17l0 -4.31c0,-4.5 3.66,-8.17 8.17,-8.17 4.51,0 8.53,3.67 8.53,8.17l0 4.31z"/>
   </g>
   <g>
    <g>
     <path fill="black" fill-rule="nonzero" d="M164.91 43.37c-8.15,-0.15 -14.64,-6.9 -14.64,-15.05l0 -3.91c0,-8.42 6.89,-15.59 15.3,-15.45 8.19,0.14 14.8,6.84 14.8,15.05l0 2.06c0,0.47 -0.33,0.87 -0.8,0.95l-21.94 4.07c1.14,3.14 4.16,5.4 7.69,5.4 3.26,0 6.05,-0.95 8.31,-2.82 0.39,-0.31 0.96,-0.26 1.31,0.1l3.4 3.58c0.38,0.4 0.37,1.04 -0.05,1.4 -3.63,3.11 -8.24,4.7 -13.38,4.62zm0.41 -27.53l0 0c-4.41,0.14 -8.17,3.67 -8.17,8.17l0.07 0.66 16.13 -2.94c-0.86,-3.86 -3.9,-6.01 -8.03,-5.89z"/>
    </g>
   </g>
   <g>
    <path fill="black" fill-rule="nonzero" d="M65.95 43.85c-8.24,0 -14.94,-6.71 -14.94,-14.95l0 -4.27c0,-8.24 6.7,-14.95 14.94,-14.95 8.25,0 14.95,6.71 14.95,14.95l0 4.27c0,8.24 -6.7,14.95 -14.95,14.95zm0 -27.34l0 0c-4.47,0 -8.11,3.64 -8.11,8.12l0 4.27c0,4.47 3.64,8.11 8.11,8.11 4.48,0 8.12,-3.64 8.12,-8.11l0 -4.27c0,-4.48 -3.64,-8.12 -8.12,-8.12z"/>
   </g>
   <g>
    <path fill="black" fill-rule="nonzero" d="M98.9 43.85c-8.25,0 -14.95,-6.71 -14.95,-14.95l0 -4.27c0,-8.24 6.7,-14.95 14.95,-14.95 8.24,0 14.94,6.71 14.94,14.95l0 4.27c0,8.24 -6.7,14.95 -14.94,14.95zm0 -27.34l0 0c-4.48,0 -8.12,3.64 -8.12,8.12l0 4.27c0,4.47 3.64,8.11 8.12,8.11 4.47,0 8.11,-3.64 8.11,-8.11l0 -4.27c0,-4.48 -3.64,-8.12 -8.11,-8.12z"/>
   </g>
  </g>
 </g>
</svg>
